<?xml version="1.0" encoding="UTF-8"?> <svg xmlns="http://www.w3.org/2000/svg" xmlns:xlink="http://www.w3.org/1999/xlink" id="Vrstva_1" width="42" height="42" viewBox="0 0 182 220"><defs><style>.cls-1{fill:none;}.cls-2{clip-path:url(#clippath);}.cls-3{fill:url(#Nepojmenovaný_přechod_3);}.cls-4{fill:url(#Nepojmenovaný_přechod_2);}.cls-5{clip-path:url(#clippath-1);}.cls-6{clip-path:url(#clippath-2);}.cls-7{fill:url(#Nepojmenovaný_přechod);}</style><clipPath id="clippath"><path class="cls-1" d="m156.04,44.34h33.88c2.58,0,4.68,2.1,4.68,4.68v125.07c0,2.58-2.1,4.68-4.68,4.68h-33.88c-2.58,0-4.68-2.1-4.68-4.68V49.02c0-2.58,2.1-4.68,4.68-4.68Z"></path></clipPath><linearGradient id="Nepojmenovaný_přechod" x1="-167.49" y1="470.26" x2="-166.49" y2="470.26" gradientTransform="translate(16426.9 45936.4) scale(97.45 -97.45)" gradientUnits="userSpaceOnUse"><stop offset="0" stop-color="#b02de9"></stop><stop offset=".02" stop-color="#b02de9"></stop><stop offset=".8" stop-color="#6d00cc"></stop><stop offset="1" stop-color="#6d00cc"></stop></linearGradient><clipPath id="clippath-1"><path class="cls-1" d="m56.66,45.99L.5,157.74c-1.16,2.31-.23,5.12,2.08,6.28l30.27,15.21c2.31,1.16,5.12.23,6.28-2.08l56.16-111.75c1.16-2.31.23-5.12-2.08-6.28l-30.27-15.21c-.68-.34-1.39-.5-2.1-.5-1.71,0-3.36.94-4.18,2.58"></path></clipPath><linearGradient id="Nepojmenovaný_přechod_2" x1="-167.49" y1="470.26" x2="-166.49" y2="470.26" gradientTransform="translate(17962.6 50466.15) scale(107.08 -107.08)" gradientUnits="userSpaceOnUse"><stop offset="0" stop-color="#f0f"></stop><stop offset="0" stop-color="#f0f"></stop><stop offset=".17" stop-color="#e90cf9"></stop><stop offset=".54" stop-color="#c023ed"></stop><stop offset=".73" stop-color="#b02de9"></stop><stop offset="1" stop-color="#b02de9"></stop></linearGradient><clipPath id="clippath-2"><path class="cls-1" d="m103.9,46.39l-24.03,121.81c-.5,2.53,1.14,4.98,3.67,5.49l33.21,6.7c2.54.51,5.02-1.14,5.52-3.68l24.03-121.81c.5-2.53-1.14-4.98-3.67-5.49l-33.21-6.7c-.31-.06-.62-.09-.93-.09-2.19,0-4.15,1.54-4.59,3.77"></path></clipPath><linearGradient id="Nepojmenovaný_přechod_3" x1="-167.49" y1="470.26" x2="-166.49" y2="470.26" gradientTransform="translate(35959.81 101077.55) scale(214.7 -214.7)" gradientUnits="userSpaceOnUse"><stop offset="0" stop-color="#f0f"></stop><stop offset=".02" stop-color="#f0f"></stop><stop offset=".09" stop-color="#e90cf9"></stop><stop offset=".23" stop-color="#c023ed"></stop><stop offset=".3" stop-color="#b02de9"></stop><stop offset=".42" stop-color="#a42be3"></stop><stop offset=".63" stop-color="#8626d5"></stop><stop offset=".85" stop-color="#6021c3"></stop><stop offset="1" stop-color="#6021c3"></stop></linearGradient></defs><g class="cls-2"><rect class="cls-7" x="129.45" y="41.01" width="87.08" height="141.09" transform="translate(-27.91 66.73) rotate(-20.24)"></rect></g><g class="cls-5"><rect class="cls-4" x="-23.86" y="29.77" width="143.51" height="164.28" transform="translate(-40.48 28.2) rotate(-23.38)"></rect></g><g class="cls-6"><rect class="cls-3" x="57.56" y="35.23" width="111.05" height="153.08" transform="translate(-31.65 45.95) rotate(-20.21)"></rect></g></svg> 